<svg xmlns="http://www.w3.org/2000/svg" data-name="Слой 1" viewBox="0 0 100 125" x="0px" y="0px"><title>Безымянный-3_Монтажная область 1</title><path d="M53.36947,30.86c-.38936,1.63781-.82074,3.267-1.15811,4.91546-.48652,2.37726-.95858,4.76-1.33947,7.15585-.56319,3.54238-1.13612,7.0879-1.527,10.65158-.36089,3.28969-.51159,6.60371-.70608,9.90985a32.34944,32.34944,0,0,0-.04272,4.30522c.24139,3.21694-.78765,6.25316-1.14694,9.37825-.32493,2.82652-1.72232,5.14266-2.824,7.62454-.76038,1.71292-3.60309,6.97212-3.68916,7.1166a13.21074,13.21074,0,0,1-1.14574,1.85148c-1.61764,1.90278-3.32763,2.1152-5.73166,1.01246a3.62878,3.62878,0,0,1-2.39293-3.91865c.27555-3.87163.5299-7.74565.7204-11.62224.1976-4.02123.55132-8.06244-.211-12.05511A11.21678,11.21678,0,0,0,28.524,60.487a10.64265,10.64265,0,0,1-1.95406-2.3694c-1.08654-1.69763-.45482-3.39152.522-4.80042a35.92437,35.92437,0,0,1,3.703-4.16589c1.50085-1.57055,3.10977-3.03931,4.58341-4.63392C36.9525,42.814,37.20861,40.5919,37.32,38.42617q.38412-7.47187.52763-14.95544c.05533-3.02134-.1502-6.04659-.16677-9.07043-.00994-1.81279.37281-5.88516.77126-6.1594.11538.37741.73958,9.24008.68759,13.29081-.06792,5.28974-.36895,10.57725-.6187,15.86341-.048,1.01539.09962,1.76709,1.19909,2.05877,1.89171.50194,3.76675,1.07359,5.67243,1.51365,1.35976.314,2.75828.46048,4.37945.72012.58746-2.83045,1.15929-5.61056,1.74321-8.38819.29709-1.413.658-2.81415.90586-4.23535a3.99768,3.99768,0,0,0-.01929-1.9483c-1.01611-2.79972-2.18324-5.54451-3.2035-8.3428-.83053-2.278-1.51686-4.60832-2.29039-6.90757a40.54262,40.54262,0,0,1-1.42576-5.92389c.29874.32151,3.18649,7.16233,4.302,10.27188,1.39924,3.90056,2.756,7.81632,4.15183,11.71812,1.28824,3.60095,2.62969,7.18309,3.88389,10.79568.22683.65333.5105.96185,1.1677.86484,2.4403-.36014,4.89658-.64664,7.3097-1.14165,1.2408-.25454,1.35335-1.12058,1.05871-2.42174A64.65116,64.65116,0,0,1,66.24537,28.23c-.21062-2.09111-.24192-4.20147-.3188-6.30457-.09691-2.65118-.25838-5.30547-.2094-7.955a79.428,79.428,0,0,1,.97016-9.41966,11.10755,11.10755,0,0,1,.63075,3.14557c.046,1.87.03177,3.74159.02988,5.61254-.00274,2.75407-.02765,5.50814-.02259,8.26218.0046,2.4793-.095,4.969.10138,7.43423a31.89069,31.89069,0,0,0,1.07664,5.20645c.61235,2.42111,1.33526,4.814,1.9678,7.23028a63.65,63.65,0,0,0,2.018,7.58512,14.19873,14.19873,0,0,1,.50162,2.81594c1.41129,6.74586.97242,21.80391.8389,22.51261-.9505,5.04467-1.86,10.09724-2.84841,15.13439a9.53614,9.53614,0,0,1-1.09425,3.189c-1.11664,1.78753-3.09549,1.78454-4.9292,1.85044a15.44929,15.44929,0,0,1-3.276-.25413,1.79241,1.79241,0,0,1-1.21762-.88155,117.01507,117.01507,0,0,1-3.43577-14.89652,59.36856,59.36856,0,0,1,.28457-6.11363c.55057-4.01418,1.1582-8.022,1.61736-12.04674.29367-2.57436.45387-5.17219.51245-7.76316a30.06475,30.06475,0,0,0-1.732-10.52686c-1.286-3.72517-2.66775-7.41728-4.00776-11.12379ZM34.28125,48.19841c-.97754.85374-2.16286,1.5005-2.75724,2.49906a14.67009,14.67009,0,0,0-1.93283,4.88991,5.58332,5.58332,0,0,0,.96082,4.49316,12.65886,12.65886,0,0,1,2.07016,3.648c1.49,4.50329,1.34617,9.17785,1.13061,13.84137-.21116,4.56818-.45844,9.13511-.60782,13.70527-.02406.73547-.03331,1.752,1.15458,1.91968.05159-.28295,3.07224.87629,3.91853-.55123,1.679-2.83218,3.23295-5.74019,4.963-8.53993a11.8897,11.8897,0,0,0,1.72-9.59386c-.37834-1.47134-.64792-2.97039-.97663-4.45472a33.67,33.67,0,0,0-3.27218-9.37851c-1.07852-1.92043-2.0046-3.92629-3.00464-5.891C36.56824,52.66506,35.48233,50.548,34.28125,48.19841ZM72.08084,65.10385c-2.26408-1.66611-4.5595-3.292-6.77564-5.01957a1.06067,1.06067,0,0,0-1.72195.15219c-1.31387,1.51871-3.09238,2.85315-3.80623,4.617a18.06218,18.06218,0,0,0-1.00164,6.87731c.01377,1.069,1.06,2.17,1.9365,3.15207a6.14628,6.14628,0,0,0,7.17825,1.82094,6.69686,6.69686,0,0,0,3.1444-2.45911C72.25457,72.39594,73.07478,65.83523,72.08084,65.10385ZM58.47353,75.128c.3305,2.71774.52062,5.46209,1.02866,8.14626.57661,3.04633,1.41456,6.045,2.2102,9.04543a1.31863,1.31863,0,0,0,.99561.68777c1.40361.07789,2.81619.07547,4.22147.01322a2.00739,2.00739,0,0,0,2.07208-1.60138c.56881-2.8329,1.11438-5.67259,1.56914-8.52553.33223-2.08419.50568-4.19367.7499-6.29188l-.18446-.27773c-1.68357,1.99948-3.503,3.25869-6.31274,2.74479C62.12544,78.57541,60.65693,76.59791,58.47353,75.128ZM36.96782,44.939c-1.58672,1.24517-1.65306,2.73274-.79061,4.37954.079.15089.14882.30678.23123.4557q1.89839,3.428,3.80108,6.85359a1.21386,1.21386,0,0,0,1.99608.48728c.85059-.56155,1.78435-.99529,2.65643-1.52648a16.82329,16.82329,0,0,0,2.64454-1.752,2.8273,2.8273,0,0,0-.71842-4.47278C43.54083,47.88785,40.28447,46.43193,36.96782,44.939Zm12.40844-1.59122C45.572,42.28516,41.9672,41.27832,38.39405,40.2803a27.19658,27.19658,0,0,1-.75506,2.6843c-.27624.71363-.01626.9939.583,1.26414,1.55073.69942,3.06155,1.49068,4.62792,2.15122,1.85868.78381,3.75885,1.4693,5.78561,2.2533C48.90352,46.7211,49.15321,44.93929,49.37626,43.34773ZM64.6004,52.01408c1.76724-1.859,3.50731-3.62052,5.14445-5.473.30672-.34705.2016-1.05808.2865-1.60113a5.34825,5.34825,0,0,0-1.41158-.16791c-1.05279.15461-2.07918.50811-3.13367.62748-1.7541.19858-3.52181.27668-5.27285.40474C60.24156,48.88515,62.801,50.01479,64.6004,52.01408ZM59.68806,62.84682c1.11224-1.23083,2.01071-2.24924,2.93526-3.2434,2.38789-2.56763,4.73807-5.1732,7.20171-7.66641,1.35634-1.3726,1.55253-1.91259.48008-3.794A22.72629,22.72629,0,0,0,67.58,50.84015c-1.42369,1.96677-6.97193,6.87244-7.22034,8.11261C60.12067,60.14625,59.943,61.352,59.68806,62.84682Zm-.91574-21.70891a16.195,16.195,0,0,1,.53365,2.34067c.07386.98145.637,1.07538,1.3999,1.01414,1.23379-.099,2.47855-.1179,3.69925-.30047.63336-.09465,3.725-1.17065,4.92455-1.45989a23.02289,23.02289,0,0,0-.38656-2.44662c-.23262-.93147-.74088-1.42428-1.75642-.71917a3.33859,3.33859,0,0,1-1.32737.4283C63.59939,40.37677,61.33426,40.728,58.77232,41.13791ZM72.339,63.52522a4.735,4.735,0,0,0-.07861-3.89975,7.16143,7.16143,0,0,0-2.44024-2.4184c-1.85214-1.105-1.85919-1.09293-3.35729.48032a.75362.75362,0,0,1-.10425.073c-.83.61354-.8526,1.10639.08248,1.71575C68.43837,60.77769,70.37657,62.17005,72.339,63.52522Zm-28.6023-.29886c1.0319,3.46777,2.03389,6.83513,3.03588,10.20246l.30257-.01727c.20255-4.01809.40509-8.0362.61912-12.2819-1.00275.475-1.70072.77872-2.37223,1.1325C44.79707,62.53871,44.30492,62.87745,43.73667,63.22636Zm3.91-7.73592c-1.23263.71064-2.228,1.2754-3.21411,1.85572-.8365.49228-2.11936.84349-2.36525,1.54945-.24925.71574.5266,1.79146.86572,2.705.0381.10261.156.17559.34746.381,1.38075-.78482,2.7704-1.56256,4.14086-2.37276a.73448.73448,0,0,0,.2156-.546C47.65658,57.93442,47.64671,56.80563,47.64671,55.49044Zm25.03673,2.02225Q72.11,54.584,71.71407,52.56213c-.78567.562-1.55508,1.03754-2.23408,1.61862-.7264.62156-.82514,1.24206.21154,1.73453C70.60242,56.34789,71.47447,56.86234,72.68344,57.51269ZM61.08608,50.6345c-.34734,2.45087-.16162,3.32628.86355,3.45855.55136.07115,1.19381-.5635,1.97642-.975ZM28.62732,57.98909c.19417-1.41683.38259-2.79173.571-4.16665l-.31657-.02715C28.43758,55.15669,27.53917,56.48431,28.62732,57.98909Z"/><text x="0" y="115" fill="#000000" font-size="5px" font-weight="bold" font-family="'Helvetica Neue', Helvetica, Arial-Unicode, Arial, Sans-serif">Created by Tatyana</text><text x="0" y="120" fill="#000000" font-size="5px" font-weight="bold" font-family="'Helvetica Neue', Helvetica, Arial-Unicode, Arial, Sans-serif">from the Noun Project</text></svg>