<svg xmlns="http://www.w3.org/2000/svg" data-name="Layer 1" viewBox="0 0 100 125" x="0px" y="0px"><title>beauty</title><path d="M46.48273,35.2077a.98933.98933,0,0,0-.98932-.98932H26.88879a.98932.98932,0,0,0-.98931.98932v21.806H46.48273Z"/><path d="M44.36475,20.59839A53.5525,53.5525,0,0,0,42.04187,6.537c-.413-1.40949-1.63037-1.96887-2.56329-1.17145-3.584,3.0636-11.46112,10.57519-11.46112,17.41931v8.25H44.36475Z"/><path d="M47.82391,61.091H24.55835a1.58048,1.58048,0,0,0-1.36719,1.72919V91.29553C23.19116,93.34143,24.5025,95,26.12,95H46.26208c1.61762,0,2.929-1.65857,2.929-3.70447V62.82019A1.58044,1.58044,0,0,0,47.82391,61.091ZM30.32025,89.01453a.71242.71242,0,0,1-.61615.77948H27.49841a.71242.71242,0,0,1-.61615-.77948v-21.938a.7124.7124,0,0,1,.61615-.77942H29.7041a.7124.7124,0,0,1,.61615.77942Z"/><path d="M76.79889,20.2146c.01-.22974.01-.45953.01-.68933s0-.45954-.01-.68933H72.62048q-.017-1.33273-.06475-2.52753H76.709c-.03-.46954-.05987-.92908-.10986-1.37866H72.49341c-.04865-.91437-.10663-1.75672-.16925-2.51752h3.97522q-.105-.70431-.23981-1.37866h-3.861C72.091,9.95978,71.982,9.1109,71.89563,8.506h3.60443q-.19464-.71932-.41949-1.37866h-3.382a2.04664,2.04664,0,1,0-4.09009,0H63.75153q-.22467.65937-.4195,1.37866h4.07935c-.08637.60486-.19532,1.45374-.303,2.52753H62.77252q-.13485.67428-.23974,1.37866h4.45007c-.06262.7608-.12061,1.60315-.16925,2.51752H62.23309c-.05.44958-.07983.90912-.10986,1.37866h4.628q-.04605,1.19633-.0647,2.52753H62.0332c-.01.22979-.01.45959-.01.68933s0,.45959.01.68933h4.64588q.00083,1.21179.03235,2.51758h-4.5882c.03.46948.05988.92907.10986,1.37866h4.52112q.04614,1.22828.12482,2.52747H62.53278q.10491.7044.23974,1.37866h4.19916q.09091,1.23578.21582,2.52759H63.332c.12988.46948.26972.92907.40949,1.36865h3.587c.077.70581.15936,1.41888.25305,2.14624.61438,4.769.51319,28.86676.46656,36.28546h-.30463a.73894.73894,0,0,0-.739.73883v1.43817H64.9447a.92227.92227,0,0,0-.92218.92224V94.10687A.89313.89313,0,0,0,64.91565,95H74.3913a.89318.89318,0,0,0,.89318-.89313V73.44415a.92231.92231,0,0,0-.92218-.92224H72.30249V71.08374a.7389.7389,0,0,0-.739-.73883h-.30463c-.04657-7.4187-.14783-31.51648.46661-36.28546.09369-.72736.176-1.44043.25306-2.14624h3.11206c.13977-.43958.27972-.89917.40948-1.36865H72.11945q.1247-1.29072.21582-2.52759h3.7243q.135-.67439.23981-1.37866H72.42792q.07909-1.29859.12481-2.52747h4.04639c.05-.44959.07984-.90918.10986-1.37866h-4.1134q.03224-1.305.03235-2.51758Z"/><text x="0" y="115" fill="#000000" font-size="5px" font-weight="bold" font-family="'Helvetica Neue', Helvetica, Arial-Unicode, Arial, Sans-serif"></text><text x="0" y="120" fill="#000000" font-size="5px" font-weight="bold" font-family="'Helvetica Neue', Helvetica, Arial-Unicode, Arial, Sans-serif"></text></svg>